<svg xmlns="http://www.w3.org/2000/svg" version="1.1" xmlns:xlink="http://www.w3.org/1999/xlink" xmlns:svgjs="http://svgjs.com/svgjs" width="512" height="512" x="0" y="0" viewBox="0 0 512.6 512.6" style="enable-background:new 0 0 512 512" xml:space="preserve" class="hovered-paths"><g><g xmlns="http://www.w3.org/2000/svg"><path d="m360.53 142.39c0 25.25-20.54 45.8-45.8 45.8h-47.27v-91.6h47.27c25.26 0 45.8 20.55 45.8 45.8z" fill="#8D818F" data-original="#8D818F" class="hovered-path"></path><path d="m314.73 210.5h-1.47c-25.26 0-45.8 20.55-45.8 45.8 0 25.26 20.54 45.8 45.8 45.8h1.47c25.26 0 45.8-20.54 45.8-45.8 0-25.25-20.54-45.8-45.8-45.8zm-116.86-113.91c-25.26 0-45.8 20.55-45.8 45.8s20.54 45.8 45.8 45.8h47.27v-91.6zm0 0c-25.26 0-45.8 20.55-45.8 45.8s20.54 45.8 45.8 45.8h47.27v-91.6zm116.86 113.91h-1.47c-25.26 0-45.8 20.55-45.8 45.8 0 25.26 20.54 45.8 45.8 45.8h1.47c25.26 0 45.8-20.54 45.8-45.8 0-25.25-20.54-45.8-45.8-45.8zm-116.86 0c-25.26 0-45.8 20.55-45.8 45.8 0 25.26 20.54 45.8 45.8 45.8h47.27v-91.6zm0-113.91c-25.26 0-45.8 20.55-45.8 45.8s20.54 45.8 45.8 45.8h47.27v-91.6zm0 0c-25.26 0-45.8 20.55-45.8 45.8s20.54 45.8 45.8 45.8h47.27v-91.6zm0 113.91c-25.26 0-45.8 20.55-45.8 45.8 0 25.26 20.54 45.8 45.8 45.8h47.27v-91.6zm116.86 0h-1.47c-25.26 0-45.8 20.55-45.8 45.8 0 25.26 20.54 45.8 45.8 45.8h1.47c25.26 0 45.8-20.54 45.8-45.8 0-25.25-20.54-45.8-45.8-45.8zm0 0h-1.47c-25.26 0-45.8 20.55-45.8 45.8 0 25.26 20.54 45.8 45.8 45.8h1.47c25.26 0 45.8-20.54 45.8-45.8 0-25.25-20.54-45.8-45.8-45.8zm-162.66 159.71c0 25.25 20.71 45.8 46.16 45.8 25.87 0 46.91-20.88 46.91-46.54v-45.06h-47.27c-25.26 0-45.8 20.55-45.8 45.8zm0-113.91c0 25.26 20.54 45.8 45.8 45.8h47.27v-91.6h-47.27c-25.26 0-45.8 20.55-45.8 45.8zm0-113.91c0 25.25 20.54 45.8 45.8 45.8h47.27v-91.6h-47.27c-25.26 0-45.8 20.55-45.8 45.8zm305.14-142.39h-401.82c-30.59 0-55.39 24.8-55.39 55.39v401.82c0 30.59 24.8 55.39 55.39 55.39h401.82c30.59 0 55.39-24.8 55.39-55.39v-401.82c0-30.59-24.8-55.39-55.39-55.39zm-74.37 256.3c0 37.56-30.55 68.11-68.11 68.11h-1.47c-17.62 0-33.7-6.73-45.8-17.74v62.8c0 37.96-31.06 68.85-69.23 68.85-37.76 0-68.47-30.55-68.47-68.11 0-23.8 12.26-44.78 30.8-56.95-18.54-12.18-30.8-33.16-30.8-56.96 0-23.79 12.26-44.77 30.8-56.95-18.54-12.18-30.8-33.16-30.8-56.96 0-37.56 30.55-68.11 68.11-68.11h116.86c37.56 0 68.11 30.55 68.11 68.11 0 23.8-12.26 44.78-30.8 56.96 18.54 12.18 30.8 33.16 30.8 56.95zm-68.11-45.8h-1.47c-25.26 0-45.8 20.55-45.8 45.8 0 25.26 20.54 45.8 45.8 45.8h1.47c25.26 0 45.8-20.54 45.8-45.8 0-25.25-20.54-45.8-45.8-45.8zm-162.66 159.71c0 25.25 20.71 45.8 46.16 45.8 25.87 0 46.91-20.88 46.91-46.54v-45.06h-47.27c-25.26 0-45.8 20.55-45.8 45.8zm0-113.91c0 25.26 20.54 45.8 45.8 45.8h47.27v-91.6h-47.27c-25.26 0-45.8 20.55-45.8 45.8zm0-113.91c0 25.25 20.54 45.8 45.8 45.8h47.27v-91.6h-47.27c-25.26 0-45.8 20.55-45.8 45.8zm45.8-45.8c-25.26 0-45.8 20.55-45.8 45.8s20.54 45.8 45.8 45.8h47.27v-91.6zm0 113.91c-25.26 0-45.8 20.55-45.8 45.8 0 25.26 20.54 45.8 45.8 45.8h47.27v-91.6zm0 113.91c-25.26 0-45.8 20.55-45.8 45.8s20.71 45.8 46.16 45.8c25.87 0 46.91-20.88 46.91-46.54v-45.06zm116.86-113.91h-1.47c-25.26 0-45.8 20.55-45.8 45.8 0 25.26 20.54 45.8 45.8 45.8h1.47c25.26 0 45.8-20.54 45.8-45.8 0-25.25-20.54-45.8-45.8-45.8zm0 0h-1.47c-25.26 0-45.8 20.55-45.8 45.8 0 25.26 20.54 45.8 45.8 45.8h1.47c25.26 0 45.8-20.54 45.8-45.8 0-25.25-20.54-45.8-45.8-45.8zm-116.86 0c-25.26 0-45.8 20.55-45.8 45.8 0 25.26 20.54 45.8 45.8 45.8h47.27v-91.6zm0-113.91c-25.26 0-45.8 20.55-45.8 45.8s20.54 45.8 45.8 45.8h47.27v-91.6zm0 0c-25.26 0-45.8 20.55-45.8 45.8s20.54 45.8 45.8 45.8h47.27v-91.6zm0 113.91c-25.26 0-45.8 20.55-45.8 45.8 0 25.26 20.54 45.8 45.8 45.8h47.27v-91.6zm116.86 0h-1.47c-25.26 0-45.8 20.55-45.8 45.8 0 25.26 20.54 45.8 45.8 45.8h1.47c25.26 0 45.8-20.54 45.8-45.8 0-25.25-20.54-45.8-45.8-45.8zm-116.86-113.91c-25.26 0-45.8 20.55-45.8 45.8s20.54 45.8 45.8 45.8h47.27v-91.6zm0 0c-25.26 0-45.8 20.55-45.8 45.8s20.54 45.8 45.8 45.8h47.27v-91.6zm116.86 113.91h-1.47c-25.26 0-45.8 20.55-45.8 45.8 0 25.26 20.54 45.8 45.8 45.8h1.47c25.26 0 45.8-20.54 45.8-45.8 0-25.25-20.54-45.8-45.8-45.8z" fill="#8D818F" data-original="#8D818F" class="hovered-path"></path></g></g></svg>